# xmcd CD database file
#
# Track frame offsets:
#	150
#	24684
#	44927
#	70621
#	98671
#	123609
#	152650
#	174850
#	195203
#
# Disc length: 2886 seconds
#
# Revision: 0
# Processed by: cddbd v1.5.2PL0 Copyright (c) Steve Scherf et al.
# Submitted via: CDex 1.78
#
DISCID=6f0b4409
DTITLE=Basement Tunes - JazzGroove
DYEAR=2009
DGENRE=Jazz
TTITLE0=Song For My Father
TTITLE1=Moanin'
TTITLE2=My Favorite Things
TTITLE3=Corcovado
TTITLE4=Das Boot
TTITLE5=Spain
TTITLE6=Beautiful Love
TTITLE7=Days Of Wine And Roses
TTITLE8=Straight, No Chaser
EXTD=YEAR: 2009
EXTT0=
EXTT1=
EXTT2=
EXTT3=
EXTT4=
EXTT5=
EXTT6=
EXTT7=
EXTT8=
PLAYORDER=
